<svg xmlns="http://www.w3.org/2000/svg" xmlns:xlink="http://www.w3.org/1999/xlink" width="548" height="60" viewBox="0 0 548 60">
    <defs>
        <path id="a" d="M0 4.177c0 2.307 1.86 4.176 4.158 4.176 2.295 0 4.16-1.87 4.16-4.176 0-.964-.326-1.852-.873-2.56A1.346 1.346 0 0 1 6.2 3.475a1.346 1.346 0 0 1-1.344-1.349c0-.745.602-1.348 1.344-1.348.178 0 .349.035.503.098A4.117 4.117 0 0 0 4.158 0C1.86 0 0 1.87 0 4.177"/>
    </defs>
    <g fill="none" fill-rule="evenodd">
        <path fill="#D72F1B" d="M53.192 11.565a9.66 9.66 0 0 1 .702 3.617c0 5.323-4.296 9.637-9.596 9.637S34.7 20.505 34.7 15.182c0-5.322 4.296-9.636 9.597-9.636 1.273 0 2.49.252 3.602.704A29.496 29.496 0 0 0 29.707 0C13.302 0 0 13.36 0 29.836 0 46.315 13.302 59.67 29.707 59.67c16.407 0 29.706-13.356 29.706-29.835a29.79 29.79 0 0 0-6.221-18.27"/>
        <path fill="#41070A" d="M50.872 9.324a1.345 1.345 0 0 1-1.245 1.856 1.345 1.345 0 0 1-1.343-1.35 1.345 1.345 0 0 1 1.846-1.25 4.121 4.121 0 0 0-2.545-.874c-2.298 0-4.158 1.87-4.158 4.176 0 2.307 1.86 4.177 4.158 4.177 2.295 0 4.158-1.87 4.158-4.177 0-.964-.325-1.85-.871-2.558"/>
        <path fill="#C62422" d="M33.585 55.733c-16.383 0-29.663-13.337-29.663-29.791A29.75 29.75 0 0 1 10.914 6.73C4.254 12.202.001 20.519.001 29.836 0 46.315 13.3 59.67 29.706 59.67c9.278 0 17.56-4.271 23.009-10.96a29.478 29.478 0 0 1-19.13 7.022"/>
        <g transform="translate(43.427 7.705)">
            <mask id="b" fill="#fff">
                <use xlink:href="#a"/>
            </mask>
            <use fill="#641610" xlink:href="#a"/>
            <path fill="#000" d="M7.037 4.075a2.783 2.783 0 0 1-2.779 2.79 2.784 2.784 0 0 1-2.779-2.79 2.786 2.786 0 0 1 2.78-2.792c1.535 0 2.778 1.25 2.778 2.792" mask="url(#b)"/>
        </g>
        <g>
            <path fill="#000" d="M418.333 38.694c3.035 0 5.495 2.47 5.495 5.515 0 3.048-2.46 5.519-5.495 5.519-3.033 0-5.493-2.47-5.493-5.519 0-3.045 2.46-5.515 5.493-5.515zM95.132 11.146v23.327c0 10.515-6.02 14.184-15.638 14.184-2.356 0-5.364-.33-7.329-.877l1.113-6.737c1.374.384 3.142.659 5.104.659 4.187 0 6.804-1.59 6.804-7.284V11.146h9.946zm379.8 9.528c9.746 0 16.292 5.64 16.292 13.744 0 9.748-8.311 14.238-16.817 14.238h-.066c-9.357 0-16.553-5.149-16.553-13.8s6.806-14.182 17.143-14.182zM308.486 10.599c5.17 0 9.096.875 10.861 1.587l-2.093 6.628c-1.963-.713-4.776-1.37-8.376-1.37-7.853 0-14.002 3.997-14.002 12.21 0 7.338 5.235 11.992 14.066 11.992 3.078 0 6.349-.493 8.376-1.205l1.439 6.573c-1.767.711-5.952 1.587-11.254 1.587-15.243 0-23.093-7.995-23.093-18.508 0-12.54 10.727-19.494 24.076-19.494zm138.114 10.13c2.618 0 5.496.383 7.588 1.04l-1.568 6.19c-1.18-.44-2.944-.824-5.562-.824-5.234 0-8.637 3.123-8.572 7.447 0 4.928 3.926 7.503 8.77 7.503 2.352 0 4.185-.33 5.691-.877l1.177 6.134c-1.765.711-5.103 1.26-8.899 1.26-10.337 0-16.946-5.314-16.946-13.691 0-7.776 6.413-14.183 18.321-14.183zm-66.67-9.583l9.16 13.526c2.617 3.888 5.17 8.487 7.199 12.649h.13c-.59-4.874-.785-9.857-.785-15.442V11.146h9.16v36.908h-10.472l-9.418-14.238c-2.618-3.996-5.562-8.706-7.658-13.032h-.261c.328 4.929.459 10.13.459 16.153v11.117h-9.16V11.146h11.646zm-144.92 0l9.16 13.526c2.618 3.888 5.172 8.487 7.197 12.649h.133c-.59-4.874-.787-9.857-.787-15.442V11.146h9.162v36.908h-10.47l-9.42-14.238c-2.618-3.996-5.561-8.706-7.658-13.032h-.26c.327 4.929.458 10.13.458 16.153v11.117h-9.16V11.146h11.646zm-75.172-.274c6.149 0 10.532.986 13.476 3.012 2.88 1.806 4.712 4.873 4.712 8.487 0 3.67-1.374 6.737-4.057 8.762-3.402 2.628-8.439 3.888-14.328 3.888-1.309 0-2.486-.055-3.403-.22v13.253h-9.879V11.64c3.075-.438 7.393-.767 13.479-.767zm-33.108.274l13.74 36.907h-10.729l-3.403-9.474h-12.693l-3.075 9.474h-10.337l13.479-36.907h13.018zm77.008 0l13.74 36.907H206.75l-3.405-9.474h-12.69l-3.077 9.474h-10.337l13.478-36.907h13.02zm74.39 13.887v23.02h-9.943v-23.02h9.943zm70.53-13.887l13.737 36.907h-10.727l-3.405-9.474h-12.69l-3.078 9.474h-10.337l13.478-36.907h13.021zm186.335 9.528c6.147 0 10.794 3.615 10.794 11.61v15.77h-9.684V33.541c0-3.888-1.505-6.132-4.708-6.132-2.357 0-3.926 1.314-4.647 2.903a7.258 7.258 0 0 0-.327 2.08v15.66h-9.684V33.05c0-3.34-1.438-5.64-4.646-5.64-2.55 0-4.055 1.644-4.647 2.958-.327.656-.39 1.423-.39 2.135v15.551h-9.684V29.82c0-3.34-.13-6.133-.263-8.542h8.442l.393 3.669h.195c1.375-1.754 4.256-4.272 9.682-4.272 4.19 0 7.394 1.807 8.77 4.6h.13c1.244-1.424 2.616-2.519 4.188-3.286 1.766-.82 3.73-1.314 6.086-1.314zm-60.39 5.97c-4.71 0-6.543 4.05-6.543 8.048 0 4.546 2.29 7.994 6.476 7.994h.067c3.926 0 6.344-3.23 6.344-8.049 0-3.943-1.83-7.993-6.344-7.993zM119.928 17.39h-.197c-.588 2.19-1.307 4.982-1.962 7.119l-2.684 7.83h9.75l-2.748-7.83c-.72-2.191-1.506-4.983-2.16-7.119zm77.007 0h-.196c-.59 2.19-1.307 4.982-1.963 7.119l-2.684 7.83h9.748l-2.747-7.83c-.72-2.191-1.505-4.983-2.158-7.119zm144.917 0h-.194c-.59 2.19-1.307 4.982-1.963 7.119l-2.684 7.83h9.752l-2.752-7.83c-.717-2.191-1.505-4.983-2.159-7.119zm-181.557-.164c-1.962 0-3.336.108-4.056.273v10.898c.85.163 1.832.218 3.338.218 5.3 0 8.572-2.245 8.572-5.969 0-3.394-2.814-5.42-7.854-5.42z"/>
            <path fill="#D72F1B" d="M278.682 15.812c0 3.047-2.46 5.517-5.494 5.517-3.032 0-5.492-2.47-5.492-5.517 0-3.046 2.46-5.516 5.492-5.516 3.035 0 5.494 2.47 5.494 5.516"/>
        </g>
    </g>
</svg>